<?xml version="1.0" encoding="UTF-8" standalone="no"?>
<svg
   xmlns:dc="http://purl.org/dc/elements/1.1/"
   xmlns:cc="http://creativecommons.org/ns#"
   xmlns:rdf="http://www.w3.org/1999/02/22-rdf-syntax-ns#"
   xmlns:svg="http://www.w3.org/2000/svg"
   xmlns="http://www.w3.org/2000/svg"
   xmlns:xlink="http://www.w3.org/1999/xlink"
   xmlns:sodipodi="http://sodipodi.sourceforge.net/DTD/sodipodi-0.dtd"
   xmlns:inkscape="http://www.inkscape.org/namespaces/inkscape"
   width="100"
   height="100"
   viewBox="0 0 38.754921 97.440946"
   id="svg4418"
   version="1.1"
   sodipodi:docname="logo.svg"
   inkscape:export-filename="/home/tommychu/GolandProjects/rand/static/assets/img/logo/favicon.png"
   inkscape:export-xdpi="60"
   inkscape:export-ydpi="60"
   inkscape:version="0.92.5 (2060ec1f9f, 2020-04-08)">
  <sodipodi:namedview
     pagecolor="#ffffff"
     bordercolor="#666666"
     borderopacity="1"
     objecttolerance="10"
     gridtolerance="10"
     guidetolerance="10"
     inkscape:pageopacity="0"
     inkscape:pageshadow="2"
     inkscape:window-width="1920"
     inkscape:window-height="1016"
     id="namedview13"
     showgrid="false"
     inkscape:snap-page="true"
     inkscape:snap-bbox="true"
     inkscape:bbox-paths="true"
     inkscape:snap-bbox-edge-midpoints="true"
     inkscape:snap-bbox-midpoints="true"
     inkscape:bbox-nodes="true"
     inkscape:zoom="3.337544"
     inkscape:cx="46.949824"
     inkscape:cy="27.99621"
     inkscape:window-x="0"
     inkscape:window-y="27"
     inkscape:window-maximized="1"
     inkscape:current-layer="svg4418" />
  <defs
     id="defs4420">
    <linearGradient
       id="linearGradient2815">
      <stop
         style="stop-color:#dc0000;stop-opacity:1"
         offset="0"
         id="stop2811" />
      <stop
         style="stop-color:#2a0093;stop-opacity:1"
         offset="1"
         id="stop2813" />
    </linearGradient>
    <linearGradient
       id="linearGradient2779">
      <stop
         style="stop-color:#811b1b;stop-opacity:1;"
         offset="0"
         id="stop2777" />
    </linearGradient>
    <linearGradient
       xlink:href="#linearGradient2815"
       id="linearGradient2817"
       x1="-263.90378"
       y1="188.90495"
       x2="-205.23781"
       y2="235.18521"
       gradientUnits="userSpaceOnUse"
       gradientTransform="matrix(1.6317971,0,0,1.6317971,150.60964,-127.7333)" />
  </defs>
  <metadata
     id="metadata4423">
    image/svg+xml
  <rdf:RDF>
  <cc:Work
     rdf:about="">
    <dc:format>image/svg+xml</dc:format>
    <dc:type
       rdf:resource="http://purl.org/dc/dcmitype/StillImage" />
  </cc:Work>
</rdf:RDF>
</metadata>
  <g
     id="layer1"
     transform="matrix(0.70637086,0,0,0.70637086,182.07619,-104.86669)">
    <path
       style="color:#000000;font-style:normal;font-variant:normal;font-weight:normal;font-stretch:normal;font-size:medium;line-height:normal;font-family:sans-serif;text-indent:0;text-align:start;text-decoration:none;text-decoration-line:none;text-decoration-style:solid;text-decoration-color:#000000;letter-spacing:normal;word-spacing:normal;text-transform:none;writing-mode:lr-tb;direction:ltr;baseline-shift:baseline;text-anchor:start;white-space:normal;clip-rule:nonzero;display:inline;overflow:visible;visibility:visible;opacity:1;isolation:auto;mix-blend-mode:normal;color-interpolation:sRGB;color-interpolation-filters:linearRGB;solid-color:#000000;solid-opacity:1;fill:url(#linearGradient2817);fill-opacity:1;fill-rule:evenodd;stroke:none;stroke-width:33.57839966;stroke-linecap:round;stroke-linejoin:round;stroke-miterlimit:4;stroke-dasharray:none;stroke-dashoffset:0;stroke-opacity:1;color-rendering:auto;image-rendering:auto;shape-rendering:auto;text-rendering:auto;enable-background:accumulate"
       d="m -228.17521,168.72498 c -0.61896,0.0411 -1.23081,0.14768 -1.82218,0.33307 l -41.69538,12.71625 c -3.83881,1.1729 -6.08104,5.15733 -5.09433,9.05231 l 4.85919,43.77232 c 0.22496,1.99125 1.23323,3.81066 2.80195,5.05521 l 30.84043,24.53123 c 0.13332,0.11537 0.27078,0.22651 0.41131,0.33309 0.19562,0.15338 0.39844,0.29803 0.60692,0.43136 0.2095,0.1343 0.42519,0.25893 0.64705,0.37218 0.21055,0.10868 0.42727,0.20592 0.64709,0.29394 l 0.15649,0.0602 c 0.15437,0.0602 0.31193,0.10917 0.4705,0.15649 0.14262,0.0411 0.28569,0.0803 0.43138,0.11733 l 0.10035,0.0206 h 0.0411 c 0.16833,0.0411 0.3382,0.07 0.50962,0.10035 l 0.48954,0.0602 h 0.11733 c 0.14931,0.01 0.3001,0.0207 0.45042,0.0207 0.20951,-0.005 0.41851,-0.0207 0.627,-0.0411 0.24965,-0.0207 0.4988,-0.0516 0.74435,-0.10036 0.25069,-0.0516 0.49933,-0.10557 0.74436,-0.17656 0.70627,-0.20076 1.3799,-0.50447 1.99861,-0.90085 l 38.77588,-21.76857 c 2.22329,-1.2512 3.66166,-3.54523 3.82077,-6.0937 l 2.84103,-46.86807 c 0.11422,-1.94966 -0.53171,-3.86754 -1.80252,-5.34905 -0.0516,-0.0602 -0.10345,-0.11847 -0.15649,-0.17658 -0.28879,-0.31297 -0.60295,-0.6019 -0.94003,-0.86176 -0.0602,-0.0516 -0.11732,-0.0901 -0.17656,-0.1374 l -0.11732,-0.0803 c -0.16473,-0.1245 -0.33511,-0.24193 -0.50963,-0.35313 -0.14719,-0.0803 -0.29805,-0.16155 -0.45042,-0.23472 -0.07,-0.0308 -0.1436,-0.07 -0.21568,-0.10036 -0.15453,-0.0803 -0.31094,-0.14931 -0.47051,-0.21569 l -0.0602,-0.0207 c -0.10346,-0.0308 -0.2085,-0.07 -0.31298,-0.10036 l -36.34629,-13.40203 c -0.94605,-0.34695 -1.95222,-0.50036 -2.95865,-0.45042 z m -1.52077,7.40697 c 3.264,-0.45917 6.46748,0.31093 7.15168,1.72424 0.6832,1.41108 -1.41882,2.93024 -4.68295,3.38967 -3.264,0.45969 -6.44896,-0.31298 -7.13211,-1.72417 -0.68418,-1.41301 1.39927,-2.93025 4.66338,-3.38974 z m -20.98488,5.91728 c 3.45571,-0.51962 6.8389,0.36033 7.56317,1.95934 0.72331,1.59752 -1.50148,3.32081 -4.9572,3.84042 -3.45581,0.51966 -6.83986,-0.36188 -7.56317,-1.95943 -0.72434,-1.5996 1.50148,-3.32069 4.9572,-3.84033 z m 42.16567,0.84271 c 3.64743,0.49985 5.97501,2.14814 5.21191,3.6835 -0.76443,1.53741 -4.32723,2.38051 -7.97464,1.88102 -3.64752,-0.49983 -5.99569,-2.16574 -5.23157,-3.7032 0.76345,-1.53531 4.34688,-2.36085 7.9943,-1.86132 z m -23.57124,0.23475 c 4.03086,-0.49986 7.97242,0.34284 8.81711,1.88097 0.8437,1.5354 -1.72964,3.18406 -5.76054,3.68365 -4.03088,0.49984 -7.99307,-0.34593 -8.83669,-1.88102 -0.84468,-1.53748 1.7493,-3.18403 5.78012,-3.6836 z m 1.44995,7.64152 c 2.94187,0.10558 5.40058,0.92895 6.05439,2.17496 0.86976,1.65959 -1.79785,3.43775 -5.95647,3.97744 -4.1587,0.53973 -8.24129,-0.35829 -9.11105,-2.01813 -0.87178,-1.66177 1.79784,-3.4574 5.95648,-3.99713 1.03963,-0.1343 2.076,-0.17245 3.05665,-0.1374 z m -34.93399,7.16036 c 1.46937,0.0901 3.23858,1.66637 4.48686,4.17347 1.66492,3.34288 1.7533,7.09732 0.19562,8.36648 -1.55528,1.26752 -4.15488,-0.41953 -5.81925,-3.76201 -1.66492,-3.34272 -1.75129,-7.07934 -0.1956,-8.34687 0.38916,-0.31709 0.84267,-0.46225 1.33249,-0.43136 z m 68.2513,3.69206 c 0.67319,-0.0901 1.33147,-0.0308 1.92016,0.25482 2.35158,1.13321 2.80303,5.06673 1.01894,8.77799 -1.78419,3.71108 -5.13316,5.79648 -7.48484,4.66325 -2.35482,-1.1348 -2.8226,-5.04718 -1.03845,-8.75843 1.33811,-2.78337 3.56388,-4.6545 5.58419,-4.93754 z m -51.81221,5.65409 c 1.59568,0.10036 3.54276,1.76402 4.89841,4.40866 1.80736,3.52604 1.90677,7.4588 0.21569,8.79756 -1.68903,1.33706 -4.54082,-0.43137 -6.34838,-3.95793 -1.80705,-3.52613 -1.90445,-7.48016 -0.21569,-8.81722 0.42211,-0.3351 0.91795,-0.46433 1.44997,-0.43136 z m 30.53347,3.22182 c 0.67311,-0.0901 1.33151,-0.0308 1.92018,0.25481 2.3516,1.13321 2.80294,5.06674 1.01885,8.77792 -1.78421,3.71115 -5.13305,5.7966 -7.48473,4.66338 -2.35483,-1.13481 -2.80304,-5.04729 -1.0189,-8.75839 1.33811,-2.78337 3.54422,-4.65467 5.5646,-4.93764 z m -45.01322,1.65703 c 1.34296,0.10035 2.97377,1.69891 4.11472,4.25187 1.5215,3.40393 1.5998,7.21129 0.17656,8.50372 -1.42154,1.29067 -3.80813,-0.41645 -5.32948,-3.82079 -1.52167,-3.40393 -1.59791,-7.21298 -0.17656,-8.50372 0.35622,-0.32329 0.76741,-0.4633 1.21476,-0.43138 z m 15.47903,10.52184 c 1.59568,0.10035 3.52308,1.76391 4.87884,4.40856 1.80736,3.52602 1.90677,7.45888 0.21568,8.79765 -1.68901,1.33707 -4.52124,-0.43138 -6.32875,-3.95803 -1.80707,-3.52612 -1.9045,-7.48003 -0.21569,-8.81711 0.42211,-0.33512 0.91789,-0.46433 1.44992,-0.43136 z m 50.34265,3.31971 c 0.67317,-0.0901 1.33156,-0.01 1.92025,0.27489 2.35158,1.13322 2.80292,5.04717 1.01885,8.75838 -1.78421,3.71115 -5.13307,5.81605 -7.48475,4.68282 -2.35481,-1.13482 -2.8227,-5.06683 -1.03854,-8.77793 1.33819,-2.78337 3.56386,-4.65457 5.58419,-4.93765 z m -64.07785,0.59889 c 1.25882,0.0803 2.79052,1.45814 3.8599,3.64453 1.42632,2.915 1.49094,6.1821 0.15649,7.2888 -1.33242,1.10533 -3.57045,-0.35725 -4.99641,-3.27214 -1.42551,-2.91495 -1.48913,-6.1837 -0.15649,-7.28892 0.33409,-0.27694 0.71631,-0.39944 1.1364,-0.37218 z m 43.50453,9.09993 c 0.67311,-0.0901 1.33151,-0.01 1.9202,0.27489 2.35158,1.13317 2.8225,5.06673 1.03839,8.77794 -1.7842,3.71115 -5.15261,5.79647 -7.50429,4.66325 -2.35481,-1.13482 -2.80313,-5.06684 -1.01897,-8.77792 1.33818,-2.78349 3.54429,-4.65467 5.56467,-4.93764 z m -28.82885,1.65704 c 1.59569,0.10035 3.54272,1.76402 4.89841,4.40856 1.80737,3.52603 1.88719,7.45888 0.19562,8.7976 -1.68897,1.33706 -4.5212,-0.43138 -6.32876,-3.95787 -1.80705,-3.52623 -1.90445,-7.46059 -0.21571,-8.79766 0.42264,-0.33512 0.91796,-0.48337 1.44992,-0.45042 z"
       id="path2434"
       inkscape:connector-curvature="0" />
  </g>
  <g
     transform="matrix(0.70637086,0,0,0.70637086,182.07619,-104.86669)"
     id="g824"
     style="fill:#ffffff;fill-opacity:1"
     inkscape:export-xdpi="500"
     inkscape:export-ydpi="500">
    <path
       inkscape:connector-curvature="0"
       id="path822"
       d="m -228.17521,168.72498 c -0.61896,0.0411 -1.23081,0.14768 -1.82218,0.33307 l -41.69538,12.71625 c -3.83881,1.1729 -6.08104,5.15733 -5.09433,9.05231 l 4.85919,43.77232 c 0.22496,1.99125 1.23323,3.81066 2.80195,5.05521 l 30.84043,24.53123 c 0.13332,0.11537 0.27078,0.22651 0.41131,0.33309 0.19562,0.15338 0.39844,0.29803 0.60692,0.43136 0.2095,0.1343 0.42519,0.25893 0.64705,0.37218 0.21055,0.10868 0.42727,0.20592 0.64709,0.29394 l 0.15649,0.0602 c 0.15437,0.0602 0.31193,0.10917 0.4705,0.15649 0.14262,0.0411 0.28569,0.0803 0.43138,0.11733 l 0.10035,0.0206 h 0.0411 c 0.16833,0.0411 0.3382,0.07 0.50962,0.10035 l 0.48954,0.0602 h 0.11733 c 0.14931,0.01 0.3001,0.0207 0.45042,0.0207 0.20951,-0.005 0.41851,-0.0207 0.627,-0.0411 0.24965,-0.0207 0.4988,-0.0516 0.74435,-0.10036 0.25069,-0.0516 0.49933,-0.10557 0.74436,-0.17656 0.70627,-0.20076 1.3799,-0.50447 1.99861,-0.90085 l 38.77588,-21.76857 c 2.22329,-1.2512 3.66166,-3.54523 3.82077,-6.0937 l 2.84103,-46.86807 c 0.11422,-1.94966 -0.53171,-3.86754 -1.80252,-5.34905 -0.0516,-0.0602 -0.10345,-0.11847 -0.15649,-0.17658 -0.28879,-0.31297 -0.60295,-0.6019 -0.94003,-0.86176 -0.0602,-0.0516 -0.11732,-0.0901 -0.17656,-0.1374 l -0.11732,-0.0803 c -0.16473,-0.1245 -0.33511,-0.24193 -0.50963,-0.35313 -0.14719,-0.0803 -0.29805,-0.16155 -0.45042,-0.23472 -0.07,-0.0308 -0.1436,-0.07 -0.21568,-0.10036 -0.15453,-0.0803 -0.31094,-0.14931 -0.47051,-0.21569 l -0.0602,-0.0207 c -0.10346,-0.0308 -0.2085,-0.07 -0.31298,-0.10036 l -36.34629,-13.40203 c -0.94605,-0.34695 -1.95222,-0.50036 -2.95865,-0.45042 z m -1.52077,7.40697 c 3.264,-0.45917 6.46748,0.31093 7.15168,1.72424 0.6832,1.41108 -1.41882,2.93024 -4.68295,3.38967 -3.264,0.45969 -6.44896,-0.31298 -7.13211,-1.72417 -0.68418,-1.41301 1.39927,-2.93025 4.66338,-3.38974 z m -20.98488,5.91728 c 3.45571,-0.51962 6.8389,0.36033 7.56317,1.95934 0.72331,1.59752 -1.50148,3.32081 -4.9572,3.84042 -3.45581,0.51966 -6.83986,-0.36188 -7.56317,-1.95943 -0.72434,-1.5996 1.50148,-3.32069 4.9572,-3.84033 z m 42.16567,0.84271 c 3.64743,0.49985 5.97501,2.14814 5.21191,3.6835 -0.76443,1.53741 -4.32723,2.38051 -7.97464,1.88102 -3.64752,-0.49983 -5.99569,-2.16574 -5.23157,-3.7032 0.76345,-1.53531 4.34688,-2.36085 7.9943,-1.86132 z m -23.57124,0.23475 c 4.03086,-0.49986 7.97242,0.34284 8.81711,1.88097 0.8437,1.5354 -1.72964,3.18406 -5.76054,3.68365 -4.03088,0.49984 -7.99307,-0.34593 -8.83669,-1.88102 -0.84468,-1.53748 1.7493,-3.18403 5.78012,-3.6836 z m 1.44995,7.64152 c 2.94187,0.10558 5.40058,0.92895 6.05439,2.17496 0.86976,1.65959 -1.79785,3.43775 -5.95647,3.97744 -4.1587,0.53973 -8.24129,-0.35829 -9.11105,-2.01813 -0.87178,-1.66177 1.79784,-3.4574 5.95648,-3.99713 1.03963,-0.1343 2.076,-0.17245 3.05665,-0.1374 z m -34.93399,7.16036 c 1.46937,0.0901 3.23858,1.66637 4.48686,4.17347 1.66492,3.34288 1.7533,7.09732 0.19562,8.36648 -1.55528,1.26752 -4.15488,-0.41953 -5.81925,-3.76201 -1.66492,-3.34272 -1.75129,-7.07934 -0.1956,-8.34687 0.38916,-0.31709 0.84267,-0.46225 1.33249,-0.43136 z m 68.2513,3.69206 c 0.67319,-0.0901 1.33147,-0.0308 1.92016,0.25482 2.35158,1.13321 2.80303,5.06673 1.01894,8.77799 -1.78419,3.71108 -5.13316,5.79648 -7.48484,4.66325 -2.35482,-1.1348 -2.8226,-5.04718 -1.03845,-8.75843 1.33811,-2.78337 3.56388,-4.6545 5.58419,-4.93754 z m -51.81221,5.65409 c 1.59568,0.10036 3.54276,1.76402 4.89841,4.40866 1.80736,3.52604 1.90677,7.4588 0.21569,8.79756 -1.68903,1.33706 -4.54082,-0.43137 -6.34838,-3.95793 -1.80705,-3.52613 -1.90445,-7.48016 -0.21569,-8.81722 0.42211,-0.3351 0.91795,-0.46433 1.44997,-0.43136 z m 30.53347,3.22182 c 0.67311,-0.0901 1.33151,-0.0308 1.92018,0.25481 2.3516,1.13321 2.80294,5.06674 1.01885,8.77792 -1.78421,3.71115 -5.13305,5.7966 -7.48473,4.66338 -2.35483,-1.13481 -2.80304,-5.04729 -1.0189,-8.75839 1.33811,-2.78337 3.54422,-4.65467 5.5646,-4.93764 z m -45.01322,1.65703 c 1.34296,0.10035 2.97377,1.69891 4.11472,4.25187 1.5215,3.40393 1.5998,7.21129 0.17656,8.50372 -1.42154,1.29067 -3.80813,-0.41645 -5.32948,-3.82079 -1.52167,-3.40393 -1.59791,-7.21298 -0.17656,-8.50372 0.35622,-0.32329 0.76741,-0.4633 1.21476,-0.43138 z m 15.47903,10.52184 c 1.59568,0.10035 3.52308,1.76391 4.87884,4.40856 1.80736,3.52602 1.90677,7.45888 0.21568,8.79765 -1.68901,1.33707 -4.52124,-0.43138 -6.32875,-3.95803 -1.80707,-3.52612 -1.9045,-7.48003 -0.21569,-8.81711 0.42211,-0.33512 0.91789,-0.46433 1.44992,-0.43136 z m 50.34265,3.31971 c 0.67317,-0.0901 1.33156,-0.01 1.92025,0.27489 2.35158,1.13322 2.80292,5.04717 1.01885,8.75838 -1.78421,3.71115 -5.13307,5.81605 -7.48475,4.68282 -2.35481,-1.13482 -2.8227,-5.06683 -1.03854,-8.77793 1.33819,-2.78337 3.56386,-4.65457 5.58419,-4.93765 z m -64.07785,0.59889 c 1.25882,0.0803 2.79052,1.45814 3.8599,3.64453 1.42632,2.915 1.49094,6.1821 0.15649,7.2888 -1.33242,1.10533 -3.57045,-0.35725 -4.99641,-3.27214 -1.42551,-2.91495 -1.48913,-6.1837 -0.15649,-7.28892 0.33409,-0.27694 0.71631,-0.39944 1.1364,-0.37218 z m 43.50453,9.09993 c 0.67311,-0.0901 1.33151,-0.01 1.9202,0.27489 2.35158,1.13317 2.8225,5.06673 1.03839,8.77794 -1.7842,3.71115 -5.15261,5.79647 -7.50429,4.66325 -2.35481,-1.13482 -2.80313,-5.06684 -1.01897,-8.77792 1.33818,-2.78349 3.54429,-4.65467 5.56467,-4.93764 z m -28.82885,1.65704 c 1.59569,0.10035 3.54272,1.76402 4.89841,4.40856 1.80737,3.52603 1.88719,7.45888 0.19562,8.7976 -1.68897,1.33706 -4.5212,-0.43138 -6.32876,-3.95787 -1.80705,-3.52623 -1.90445,-7.46059 -0.21571,-8.79766 0.42264,-0.33512 0.91796,-0.48337 1.44992,-0.45042 z"
       style="color:#000000;font-style:normal;font-variant:normal;font-weight:normal;font-stretch:normal;font-size:medium;line-height:normal;font-family:sans-serif;text-indent:0;text-align:start;text-decoration:none;text-decoration-line:none;text-decoration-style:solid;text-decoration-color:#000000;letter-spacing:normal;word-spacing:normal;text-transform:none;writing-mode:lr-tb;direction:ltr;baseline-shift:baseline;text-anchor:start;white-space:normal;clip-rule:nonzero;display:inline;overflow:visible;visibility:visible;opacity:1;isolation:auto;mix-blend-mode:normal;color-interpolation:sRGB;color-interpolation-filters:linearRGB;solid-color:#000000;solid-opacity:1;fill:#ffffff;fill-opacity:1;fill-rule:evenodd;stroke:none;stroke-width:33.57839966;stroke-linecap:round;stroke-linejoin:round;stroke-miterlimit:4;stroke-dasharray:none;stroke-dashoffset:0;stroke-opacity:1;color-rendering:auto;image-rendering:auto;shape-rendering:auto;text-rendering:auto;enable-background:accumulate" />
  </g>
</svg>
