<?xml version="1.0" encoding="UTF-8" standalone="no"?>
<svg
   xmlns:dc="http://purl.org/dc/elements/1.1/"
   xmlns:cc="http://creativecommons.org/ns#"
   xmlns:rdf="http://www.w3.org/1999/02/22-rdf-syntax-ns#"
   xmlns:svg="http://www.w3.org/2000/svg"
   xmlns="http://www.w3.org/2000/svg"
   xmlns:xlink="http://www.w3.org/1999/xlink"
   xmlns:sodipodi="http://sodipodi.sourceforge.net/DTD/sodipodi-0.dtd"
   xmlns:inkscape="http://www.inkscape.org/namespaces/inkscape"
   sodipodi:docname="rand.svg"
   inkscape:version="1.0.1 (3bc2e813f5, 2020-09-07)"
   id="svg8"
   version="1.1"
   viewBox="0 0 264.58333 132.29227"
   height="500"
   width="1000">
  <defs
     id="defs2">
    <linearGradient
       inkscape:collect="always"
       id="linearGradient1664">
      <stop
         style="stop-color:#000000;stop-opacity:1"
         offset="0"
         id="stop1660" />
      <stop
         style="stop-color:#9b3500;stop-opacity:1"
         offset="1"
         id="stop1662" />
    </linearGradient>
    <linearGradient
       inkscape:collect="always"
       id="linearGradient1646">
      <stop
         style="stop-color:#983807;stop-opacity:1"
         offset="0"
         id="stop1642" />
      <stop
         style="stop-color:#000000;stop-opacity:1"
         offset="1"
         id="stop1644" />
    </linearGradient>
    <linearGradient
       inkscape:collect="always"
       xlink:href="#linearGradient1646"
       id="linearGradient1648"
       x1="256.76254"
       y1="117.0887"
       x2="260.19235"
       y2="135.36298"
       gradientUnits="userSpaceOnUse"
       gradientTransform="matrix(0.36915657,-0.02811237,0.02811237,0.36915657,82.158259,85.656443)" />
    <linearGradient
       inkscape:collect="always"
       xlink:href="#linearGradient1664"
       id="linearGradient1666"
       x1="14.042689"
       y1="138.97275"
       x2="15.802141"
       y2="117.58125"
       gradientUnits="userSpaceOnUse"
       gradientTransform="matrix(0.45417891,0.09453556,-0.08567712,0.41162012,89.695576,68.64626)" />
  </defs>
  <sodipodi:namedview
     id="base"
     pagecolor="#ffffff"
     bordercolor="#666666"
     borderopacity="1.0"
     inkscape:pageopacity="0.0"
     inkscape:pageshadow="2"
     inkscape:zoom="0.56242567"
     inkscape:cx="87.312501"
     inkscape:cy="477.29864"
     inkscape:document-units="mm"
     inkscape:current-layer="g3005"
     inkscape:document-rotation="0"
     showgrid="false"
     units="px"
     inkscape:window-width="1920"
     inkscape:window-height="1016"
     inkscape:window-x="0"
     inkscape:window-y="0"
     inkscape:window-maximized="1"
     inkscape:snap-global="false"
     inkscape:snap-bbox="true"
     inkscape:bbox-paths="true"
     inkscape:bbox-nodes="true"
     inkscape:snap-bbox-midpoints="true"
     inkscape:snap-bbox-edge-midpoints="true"
     inkscape:object-paths="true"
     inkscape:snap-intersection-paths="true"
     inkscape:snap-smooth-nodes="true"
     inkscape:snap-midpoints="true"
     inkscape:snap-object-midpoints="true"
     inkscape:snap-center="true"
     inkscape:snap-text-baseline="true" />
  <metadata
     id="metadata5">
    <rdf:RDF>
      <cc:Work
         rdf:about="">
        <dc:format>image/svg+xml</dc:format>
        <dc:type
           rdf:resource="http://purl.org/dc/dcmitype/StillImage" />
        <dc:title></dc:title>
      </cc:Work>
    </rdf:RDF>
  </metadata>
  <g
     inkscape:label="Layer 1"
     inkscape:groupmode="layer"
     id="layer1">
    <g
       id="g2849"
       style="stroke:#ffffff;stroke-width:1.2;stroke-miterlimit:4;stroke-dasharray:none;stroke-opacity:1"
       transform="translate(0.20928955,0.46302083)" />
    <text
       xml:space="preserve"
       style="font-style:normal;font-weight:normal;font-size:10.5833px;line-height:1.25;font-family:sans-serif;fill:#000000;fill-opacity:1;stroke:none;stroke-width:0.264583"
       x="275.2757"
       y="130.2122"
       id="text2829"><tspan
         sodipodi:role="line"
         id="tspan2827"
         x="275.2757"
         y="130.2122"
         style="stroke-width:0.264583" /></text>
    <g
       id="g3005">
      <g
         id="g978"
         transform="matrix(1.2459629,0,0,1.2459629,-32.538841,-98.684374)">
        <g
           id="g2935"
           transform="translate(0,7.7268914e-5)">
          <path
             style="fill:none;stroke:#000000;stroke-width:0.687917;stroke-linecap:round;stroke-linejoin:round;stroke-miterlimit:4;stroke-dasharray:none;stroke-opacity:1;paint-order:markers stroke fill"
             d="m 206.54073,113.08637 17.06354,34.69992"
             id="path2208" />
          <path
             style="fill:none;stroke:#000000;stroke-width:0.687917;stroke-linecap:butt;stroke-linejoin:round;stroke-miterlimit:4;stroke-dasharray:none;stroke-opacity:1"
             d="m 61.288158,113.10996 17.063537,34.69993"
             id="path2234" />
          <path
             d="m 110.62124,131.29155 c 0.0885,-2.91448 2.94371,-1.58686 4.18906,-0.71215 1.24535,0.8747 1.48591,0.11574 1.69042,1.82344 a 27.940935,26.90398 89.113899 0 1 0.1855,3.35723 8.2451183,7.9391222 89.113899 0 1 -5.31875,-1.32034 c -0.78062,-0.57364 -2.24848,-2.40052 -0.75988,-3.0709"
             fill="#f6d2a2"
             id="path354"
             style="fill:#ffcd89;fill-opacity:0.99;stroke-width:1.51227" />
          <path
             d="m 112.05954,129.4051 c -0.27737,1.1e-4 -0.56952,0.0886 -0.81714,0.21809 -0.57604,0.35741 -0.78042,0.82962 -0.75558,1.5264 -0.37009,0.19882 -0.57406,0.54605 -0.61007,0.97732 0.12374,1.03634 0.75144,1.78734 1.59369,2.35855 1.61845,1.11972 3.31747,1.56405 5.24712,1.32453 l 0.22424,0.16192 -0.004,-0.23115 c 0.0174,-0.87956 -0.021,-1.75943 -0.11494,-2.63389 l -0.0119,-0.77047 c -0.0928,-1.20081 -0.31132,-1.18187 -0.90721,-1.32678 -0.3182,-0.0969 -0.82062,-0.32907 -1.09715,-0.51927 -0.86434,-0.67169 -1.67523,-0.95928 -2.74746,-1.08525 z m -0.53338,4.73932 c -0.67843,-0.47084 -1.14072,-1.21064 -1.27831,-2.04561 0.0326,-0.2944 0.22498,-0.54308 0.49471,-0.63959 l 0.14838,-0.002 -0.003,-0.16951 c -0.052,-0.54364 0.17688,-1.07494 0.60173,-1.3965 1.13489,-0.20089 2.29774,0.1311 3.17521,0.90652 0.31305,0.22064 0.65579,0.39194 1.01707,0.50832 0.38792,0.13272 0.73725,0.15814 0.81138,1.11262 l -0.0667,0.78276 c 0.0813,0.76721 0.11709,1.51212 0.11888,2.28386 l -0.63528,0.0251 c -1.65736,-0.23753 -3.15085,-0.52195 -4.38445,-1.36565 z"
             fill="#010101"
             id="path356"
             style="fill:#010101;fill-opacity:1;stroke:none;stroke-width:0.410084;stroke-miterlimit:4;stroke-dasharray:none"
             sodipodi:nodetypes="cccccccccccccccccccccccccc" />
          <path
             d="m 110.62124,131.29155 a 2.2963041,2.2110828 89.113899 0 1 1.12284,0.62999"
             fill="#c7b199"
             id="path358"
             style="stroke-width:1.51227" />
          <path
             d="m 111.46383,132.03377 c 0.22207,0.29589 0.64856,-0.051 0.42505,-0.34566 -0.55545,-0.18644 -0.37693,-0.31119 -0.93537,-0.53378 -1.0041,0.15861 0.22747,0.64189 0.51032,0.87944 z"
             fill="#010101"
             id="path360"
             style="fill:#010101;fill-opacity:1;stroke:none;stroke-width:0.410084;stroke-miterlimit:4;stroke-dasharray:none"
             sodipodi:nodetypes="cccc" />
          <path
             d="m 116.67565,116.86917 c -6.24882,-1.62498 -1.7416,-9.64002 3.34328,-6.46478 z"
             fill="#74cddd"
             id="path362"
             style="fill:#3fdaf6;fill-opacity:1;stroke-width:0.860711" />
          <path
             d="m 116.7559,117.0487 -0.12048,0.002 c -1.78058,-0.47173 -2.88979,-1.50477 -3.11803,-2.90437 a 4.1228124,4.1228124 0 0 1 1.85899,-3.91964 4.1658481,4.1658481 0 0 1 4.68411,0.0825 l 0.12169,0.0756 z m 0.74907,-7.22522 a 3.6408137,3.6408137 0 0 0 -1.97882,0.62457 3.8043489,3.8043489 0 0 0 -1.72596,3.61629 c 0.20863,1.24496 1.18716,2.17672 2.7694,2.6257 l 3.17487,-6.22115 a 4.3035624,4.3035624 0 0 0 -2.21327,-0.61999 z"
             fill="#010101"
             id="path364"
             style="stroke-width:0.860711" />
          <path
             d="m 144.21008,109.43627 c 4.86944,-3.51858 9.43859,4.15809 3.74655,6.25183 z"
             fill="#74cddd"
             id="path366"
             style="fill:#3fdaf6;fill-opacity:1;stroke-width:0.860711" />
          <path
             d="m 147.89071,115.8785 -3.88784,-6.48207 0.11068,-0.0792 a 4.0625627,4.0625627 0 0 1 4.51234,-0.44855 4.1744552,4.1744552 0 0 1 2.11649,3.82372 c -0.0727,0.86194 -0.51472,2.34077 -2.73185,3.14118 z m -3.47342,-6.4024 3.60526,6.0216 a 3.3653857,3.3653857 0 0 0 2.40961,-2.82631 3.8559917,3.8559917 0 0 0 -1.95718,-3.54211 3.6580279,3.6580279 0 0 0 -4.05769,0.34682 z"
             fill="#010101"
             id="path368"
             style="stroke-width:0.860711" />
          <path
             d="m 145.98568,155.78093 c 1.25986,0.75525 3.58529,3.0607 1.72673,4.22572 -1.77312,1.68019 -2.84228,-1.77236 -4.43312,-2.2212 a 4.3810265,4.3810265 0 0 1 2.70639,-2.00452 z"
             fill="#f6d2a2"
             id="path370"
             style="fill:#ffcd89;fill-opacity:0.99;stroke-width:0.860711" />
          <path
             d="m 146.76632,160.61525 -0.0688,0.001 c -0.71497,-0.032 -1.31097,-0.72002 -1.88922,-1.3739 a 4.0109199,4.0109199 0 0 0 -1.56973,-1.30999 l -0.20748,-0.0571 0.12577,-0.21715 a 4.5703831,4.5703831 0 0 1 2.80012,-2.06623 l 0.11188,-0.002 c 0.80809,0.48678 2.48282,1.90704 2.49445,3.21531 a 1.4373898,1.4373898 0 0 1 -0.75525,1.25986 1.5578896,1.5578896 0 0 1 -1.04169,0.54982 z m -3.24726,-2.91098 a 4.9318824,4.9318824 0 0 1 1.50975,1.32813 3.0038865,3.0038865 0 0 0 1.67248,1.27396 1.2308188,1.2308188 0 0 0 0.85435,-0.4178 1.1361404,1.1361404 0 0 0 0.62141,-1.00816 c -0.0162,-1.04994 -1.36195,-2.34617 -2.29199,-2.92575 a 4.0453483,4.0453483 0 0 0 -2.35739,1.74949 z"
             fill="#010101"
             id="path372"
             style="stroke-width:0.860711" />
          <path
             d="m 147.71494,160.17017 a 0.15492824,0.15492824 0 0 1 -0.13903,-0.0839 5.7409519,5.7409519 0 0 1 -0.25002,-0.58149 2.5821374,2.5821374 0 0 0 -0.58424,-1.04116 0.15522767,0.15522767 0 1 1 0.21169,-0.22709 2.8489582,2.8489582 0 0 1 0.65442,1.12616 5.5171666,5.5171666 0 0 0 0.24088,0.54719 0.15492824,0.15492824 0 0 1 -0.0656,0.20762 z"
             fill="#010101"
             id="path374"
             style="stroke-width:0.860711" />
          <path
             d="m 123.67651,158.76868 c -1.46817,0.24652 -2.27386,1.58464 -3.48555,2.27482 a 1.0672834,1.0672834 0 0 1 -1.72747,-0.37787 0.55946307,0.55946307 0 0 1 -0.45071,-0.19963 c -1.09378,-1.70471 1.06506,-2.93463 2.19663,-3.79573 1.60454,-0.33471 2.61541,1.01835 3.4671,2.09841 z"
             fill="#f6d2a2"
             id="path376"
             style="fill:#ffcd89;fill-opacity:0.99;stroke-width:0.860711" />
          <path
             d="m 119.4228,161.46856 a 1.0500692,1.0500692 0 0 1 -0.27539,0.004 1.2738545,1.2738545 0 0 1 -0.75871,-0.63387 0.51642747,0.51642747 0 0 1 -0.42516,-0.21724 c -1.05789,-1.61058 0.67872,-2.8684 1.82789,-3.70395 l 0.39997,-0.29886 c 1.62149,-0.35219 2.67498,0.97439 3.51794,2.04597 l 0.23716,0.30623 -0.25819,0.004 a 4.4498833,4.4498833 0 0 0 -2.15804,1.28156 7.9099477,7.9099477 0 0 1 -1.276,0.98384 1.7214249,1.7214249 0 0 1 -0.83147,0.22806 z m -1.04817,-0.98233 a 0.42174909,0.42174909 0 0 1 0.18073,-0.003 l 0.043,-6.7e-4 0.071,0.13663 a 0.99842646,0.99842646 0 0 0 0.58473,0.51606 1.179176,1.179176 0 0 0 0.85741,-0.21986 7.6861623,7.6861623 0 0 0 1.23351,-0.94876 5.1642747,5.1642747 0 0 1 2.0545,-1.29718 c -0.80773,-1.02048 -1.75449,-2.1249 -3.10166,-1.84582 l -0.38301,0.28139 c -1.17433,0.87898 -2.63027,1.91726 -1.7571,3.27245 a 0.24960661,0.24960661 0 0 0 0.18259,0.11769 z"
             fill="#010101"
             id="path378"
             style="stroke-width:0.860711" />
          <path
             d="m 118.49184,160.82874 a 0.15492824,0.15492824 0 0 1 -0.15811,-0.20415 2.3583521,2.3583521 0 0 1 0.48172,-1.13511 3.6322066,3.6322066 0 0 0 0.31864,-0.54724 0.15600042,0.15600042 0 0 1 0.286,0.12469 3.9248488,3.9248488 0 0 1 -0.34366,0.59928 2.0915313,2.0915313 0 0 0 -0.40613,1.01344 0.15492824,0.15492824 0 0 1 -0.17846,0.14909 z m -1.59181,-46.14951 c -0.86727,-0.417 -1.43585,-1.00216 -0.95134,-1.95655 0.48452,-0.9544 1.31323,-0.80366 2.14607,-0.38613 z m 29.72128,-1.28607 c 0.85395,-0.44362 1.40417,-1.04609 0.89037,-1.98504 -0.5138,-0.93895 -1.33745,-0.76266 -2.15699,-0.31957 z"
             fill="#010101"
             id="path380"
             style="stroke-width:0.860711" />
          <path
             d="m 155.34212,128.9667 c -0.24388,-2.69814 -3.01301,-1.25182 -4.205,-0.34661 -1.192,0.90522 -1.47188,0.2189 -1.58398,1.81909 a 25.905653,26.90398 71.197241 0 0 -0.005,3.12959 7.6445249,7.9391222 71.197241 0 0 5.22003,-1.62442 c 0.74582,-0.59092 2.10822,-2.3965 0.59164,-2.90696"
             fill="#f6d2a2"
             id="path382"
             style="fill:#ffcd89;fill-opacity:0.99;stroke-width:1.45615" />
          <path
             d="m 153.79463,127.30614 c -0.98415,0.12702 -1.88451,0.53861 -2.70703,1.27262 -0.22247,0.24675 -0.5747,0.32975 -0.88604,0.44357 -0.58265,0.23647 -0.83067,0.22217 -0.8611,1.28626 l 0.0294,0.71594 c -0.0467,0.81859 -0.0378,1.63803 0.0265,2.45301 l 0.0141,0.34364 0.22873,-0.16232 c 1.93226,0.0775 3.38867,-0.36736 4.93869,-1.52795 0.80726,-0.5933 1.44702,-1.38926 1.51469,-2.36032 -0.0589,-0.39753 -0.37165,-0.64714 -0.75042,-0.80389 -0.0152,-0.64543 -0.23287,-1.04589 -0.66811,-1.51582 -0.28638,-0.11031 -0.571,-0.18782 -0.87938,-0.14462 z m -4.0972,6.02167 c -0.0394,-0.71635 -0.0799,-1.41057 -0.0707,-2.12896 l 0.009,-0.74119 c -0.0358,-0.87344 0.19074,-0.92515 0.5837,-1.09265 0.35314,-0.13511 0.68492,-0.3198 0.98451,-0.54805 0.83029,-0.78719 1.9701,-1.18284 3.10995,-1.07953 0.4398,0.26655 0.69594,0.74244 0.67324,1.25088 l 0.007,0.17182 0.14771,-0.009 c 0.27347,0.0693 0.47811,0.28568 0.52631,0.55646 -0.0922,0.78522 -0.51251,1.50647 -1.16216,1.99434 -1.36029,1.04024 -3.09673,1.62401 -4.80908,1.62589 z"
             fill="#010101"
             id="path384"
             style="fill:#010101;fill-opacity:1;stroke:none;stroke-width:0.394868;stroke-miterlimit:4;stroke-dasharray:none"
             sodipodi:nodetypes="cccccccccccccccscccccccccc" />
          <path
             d="m 155.34212,128.9667 a 2.129036,2.2110828 71.197241 0 0 -1.08497,0.62595"
             fill="#c7b199"
             id="path386"
             style="stroke-width:1.45615" />
          <path
             d="m 155.0509,128.72606 c -0.40842,0.15276 -0.7599,0.42528 -1.00467,0.77897 -0.20656,0.29028 0.23623,0.58015 0.4413,0.28889 0.20784,-0.24159 0.307,-0.44412 0.61626,-0.53332 0.53105,-0.42808 0.0165,-0.20302 -0.0529,-0.53453 z"
             fill="#010101"
             id="path388"
             style="fill:#010101;fill-opacity:1;stroke:none;stroke-width:0.394868;stroke-miterlimit:4;stroke-dasharray:none"
             sodipodi:nodetypes="ccccc" />
          <path
             d="m 131.84391,106.33922 c 6.23081,-0.0964 12.06185,0.67426 15.21879,6.65114 2.83182,6.66195 1.93685,13.91525 2.50252,20.99101 0.45557,6.07892 1.35608,13.09785 -1.37941,18.78711 -2.86031,5.96665 -10.29043,7.55356 -16.40381,7.45013 -4.80487,-0.0979 -10.62933,-1.55723 -13.4084,-5.92162 -3.26412,-5.11441 -1.87626,-12.77992 -1.73241,-18.50656 0.17051,-6.78587 -2.05188,-13.56055 0.0743,-20.23892 2.20855,-6.92069 8.41527,-8.57476 15.11978,-9.21216"
             fill="#74cddd"
             id="path390"
             style="fill:#3fdaf6;fill-opacity:1;stroke-width:0.860711" />
          <path
             d="m 132.84361,160.40018 -1.06716,0.0165 a 22.714202,22.714202 0 0 1 -7.51907,-1.38152 11.989724,11.989724 0 0 1 -6.01962,-4.61556 c -2.64625,-4.12542 -2.27044,-9.88147 -1.95309,-14.96519 0.0836,-1.2753 0.15947,-2.49023 0.18493,-3.6269 a 58.382128,58.382128 0 0 0 -0.42136,-7.20712 c -0.42801,-4.29745 -0.8755,-8.74094 0.50364,-13.07496 a 11.430262,11.430262 0 0 1 5.91658,-7.05551 c 2.30608,-1.17194 5.13597,-1.86993 9.30487,-2.26152 6.14409,-0.13807 12.21609,0.62884 15.42587,6.68237 2.07249,4.8746 2.17977,10.14113 2.29299,15.2354 0.0296,1.91056 0.06,3.88135 0.22754,5.80698 0.009,0.58522 0.0871,1.17797 0.1393,1.77113 0.44785,5.57977 0.95904,11.91607 -1.53485,17.0851 -3.11938,6.46993 -11.19474,7.52451 -15.48057,7.5908 z m -0.99731,-53.90605 c -6.47186,0.65102 -12.76717,2.1429 -14.98367,9.10675 -1.36285,4.27351 -0.9159,8.68257 -0.49743,12.91993 a 58.60591,58.60591 0 0 1 0.4219,7.24153 c -0.0253,1.14528 -0.10984,2.36033 -0.18467,3.64411 -0.31815,5.03208 -0.69463,10.74511 1.88992,14.77679 1.08517,1.70485 4.55534,5.67118 13.28632,5.82022 3.7802,0.0793 12.90461,-0.49228 16.24137,-7.37876 2.45192,-5.09951 1.95013,-11.38431 1.50282,-16.92965 -0.009,-0.60243 -0.096,-1.19505 -0.13929,-1.77113 -0.12369,-1.87466 -0.19734,-3.8534 -0.22689,-5.76395 -0.0783,-5.06038 -0.21136,-10.32652 -2.2653,-15.11531 a 11.077369,11.077369 0 0 0 -6.3605,-5.50554 25.735302,25.735302 0 0 0 -8.68458,-1.04499 z"
             fill="#010101"
             id="path392"
             style="stroke-width:0.860711" />
          <path
             d="m 116.90003,114.67923 c 2.33618,8.581 16.09653,6.15159 15.45147,-2.4818 -0.77651,-10.34954 -17.72731,-8.1331 -15.45147,2.4818"
             fill="#ffffff"
             id="path398"
             style="stroke-width:1.31143" />
          <path
             d="m 124.35721,120.24307 a 8.4718507,8.4718507 0 0 1 -4.04082,-0.92119 7.147304,7.147304 0 0 1 -3.62556,-4.60007 7.2259902,7.2259902 0 0 1 2.35061,-7.44683 9.311167,9.311167 0 0 1 9.23935,-1.32333 7.003046,7.003046 0 0 1 4.29343,6.22922 c 0.34635,4.5852 -3.25762,7.31658 -6.73628,7.97372 a 9.5865677,9.5865677 0 0 1 -1.48073,0.0885 z m -7.19574,-5.62035 a 7.1604181,7.1604181 0 0 0 8.64375,5.11267 c 3.2963,-0.57562 6.70602,-3.14661 6.37703,-7.45665 a 6.5571598,6.5571598 0 0 0 -4.02549,-5.86612 8.8521655,8.8521655 0 0 0 -8.78122,1.26378 6.8063316,6.8063316 0 0 0 -2.21407,6.94632 z"
             fill="#010101"
             id="path400"
             style="stroke-width:1.31143" />
          <ellipse
             cx="-120.85464"
             cy="116.1638"
             fill="#010101"
             rx="1.9819454"
             ry="2.1489632"
             id="ellipse406"
             style="stroke-width:1.11345"
             transform="matrix(-0.99988041,0.01546477,0.01546477,0.99988041,0,0)" />
          <ellipse
             cx="-119.95274"
             cy="116.65372"
             fill="#ffffff"
             rx="0.46765003"
             ry="0.54559165"
             id="ellipse408"
             style="stroke-width:1.11345"
             transform="matrix(-0.99988041,0.01546477,0.01546477,0.99988041,0,0)" />
          <path
             d="m 132.63081,113.24903 c 1.7187,9.13455 16.65108,6.48895 14.36091,-2.7217 -2.05698,-8.25568 -15.01387,-5.76196 -14.36091,2.7217"
             fill="#ffffff"
             id="path394"
             style="stroke-width:1.21325" />
          <path
             d="m 139.84424,119.11951 a 8.3835578,8.3835578 0 0 1 -2.74856,-0.40645 6.7820681,6.7820681 0 0 1 -4.67053,-5.42444 6.9883199,6.9883199 0 0 1 1.80914,-5.41546 8.2622331,8.2622331 0 0 1 4.81489,-2.50126 7.7648004,7.7648004 0 0 1 4.93834,0.773 6.6122127,6.6122127 0 0 1 3.20968,4.33071 6.4059601,6.4059601 0 0 1 -1.76762,6.53114 8.4927499,8.4927499 0 0 1 -5.58534,2.11276 z m -6.99544,-5.89811 a 6.3695629,6.3695629 0 0 0 4.38626,5.08908 8.2864977,8.2864977 0 0 0 7.92258,-1.62714 6.0662505,6.0662505 0 0 0 1.64092,-6.09236 6.478755,6.478755 0 0 0 -7.67021,-4.80775 7.000453,7.000453 0 0 0 -6.27955,7.43817 z"
             fill="#010101"
             id="path396"
             style="stroke-width:1.21325" />
          <ellipse
             cx="141.82146"
             cy="116.38267"
             fill="#010101"
             rx="2.0619788"
             ry="2.2740676"
             id="ellipse410"
             style="stroke-width:1.17828"
             transform="rotate(-0.88610117)" />
          <ellipse
             cx="142.75229"
             cy="116.9011"
             fill="#ffffff"
             rx="0.48309216"
             ry="0.57735401"
             id="ellipse412"
             style="stroke-width:1.17828"
             transform="rotate(-0.88610117)" />
          <path
             d="m 134.69735,122.71292 a 15.253185,15.253185 0 0 1 0.0434,2.80804 1.7944923,1.7944923 0 0 1 -1.03966,0.66217 1.5432634,1.5432634 0 0 1 -1.18913,-0.87895 19.93681,19.93681 0 0 1 0.0316,-3.17713 z"
             fill="#ffffff"
             id="path402"
             style="stroke-width:0.897245" />
          <path
             d="m 133.80188,126.31618 -0.0449,6.9e-4 a 1.6957953,1.6957953 0 0 1 -1.31653,-0.99364 10.659285,10.659285 0 0 1 -0.0337,-2.18005 c -0.005,-0.33194 0.0433,-0.68266 0.047,-1.0237 l -0.004,-0.26915 2.43379,0.70716 0.002,0.15251 c 0.004,0.28709 0.009,0.59212 0.0587,0.89645 a 7.6894,7.6894 0 0 1 0.0298,1.92885 l 7e-4,0.0448 a 1.3458693,1.3458693 0 0 1 -0.84285,0.62324 l -0.27644,0.11196 z m -1.05816,-1.1143 a 1.3727867,1.3727867 0 0 0 1.01715,0.78292 l 0.24967,-0.10258 a 1.0766954,1.0766954 0 0 0 0.64769,-0.47664 7.5637854,7.5637854 0 0 0 -0.0277,-1.79427 c -0.004,-0.27812 -0.008,-0.54726 -0.0575,-0.81571 l -1.80275,-0.5195 c 0.004,0.27811 0.009,0.55623 -0.0411,0.8262 a 10.354221,10.354221 0 0 0 0.005,2.09075 z"
             fill="#010101"
             id="path404"
             style="stroke-width:0.897245" />
          <path
             d="m 130.20957,122.64773 c -0.67368,1.69744 0.46403,5.05389 2.31856,2.53954 a 19.93681,19.93681 0 0 1 0.0316,-3.17712 z"
             fill="#ffffff"
             id="path414"
             style="stroke-width:0.897245" />
          <path
             d="m 131.24351,126.25704 a 0.89724618,0.89724618 0 0 1 -0.46845,-0.11838 c -0.76937,-0.42781 -1.27274,-2.2237 -0.75527,-3.57773 l -0.001,-0.0718 2.68087,-0.72345 0.003,0.21532 c 0.005,0.34988 0.0108,0.69976 -0.0469,1.03268 a 10.255524,10.255524 0 0 0 0.0328,2.11724 l 0.002,0.11663 a 1.8931894,1.8931894 0 0 1 -1.44707,1.00947 z m -0.94214,-3.47613 c -0.36954,1.05562 -0.0391,2.69266 0.6397,3.06802 0.48876,0.27063 1.01955,-0.22215 1.38886,-0.71244 a 10.973321,10.973321 0 0 1 -0.0327,-2.11724 c -0.004,-0.26017 -0.008,-0.53828 0.0413,-0.80826 z"
             fill="#010101"
             id="path416"
             style="stroke-width:0.897245" />
          <path
             d="m 130.36569,119.39689 a 2.0546938,2.0546938 0 0 0 -1.64222,2.89693 c 0.92211,1.60098 2.88657,-0.18822 4.12684,-0.0638 1.42644,-0.0221 2.62501,1.46695 3.7542,0.21114 1.25257,-1.4013 -0.58888,-2.68295 -2.02519,-3.29786 z"
             fill="#f6d2a2"
             id="path418"
             style="stroke-width:0.897245" />
          <path
             d="m 135.60129,123.13864 a 3.5889847,3.5889847 0 0 1 -1.31552,-0.34757 3.9568555,3.9568555 0 0 0 -1.42358,-0.37282 3.5889847,3.5889847 0 0 0 -1.48425,0.34601 c -0.99939,0.36542 -2.13265,0.77778 -2.79649,-0.36953 a 1.9380517,1.9380517 0 0 1 -0.0291,-1.88399 2.2969502,2.2969502 0 0 1 1.77527,-1.25683 l 4.31233,-0.25514 c 1.06556,0.43219 2.28932,1.22985 2.51037,2.17763 a 1.7137401,1.7137401 0 0 1 -1.54899,1.96224 z m -2.70821,-1.04391 a 4.2170566,4.2170566 0 0 1 1.53166,0.39807 c 0.8127,0.32842 1.45369,0.57874 2.08881,-0.13102 a 1.1933374,1.1933374 0 0 0 0.35103,-1.09122 c -0.1922,-0.8226 -1.34321,-1.55857 -2.28234,-1.93888 l -4.16906,0.23498 a 1.9918865,1.9918865 0 0 0 -1.50876,1.08221 1.6240156,1.6240156 0 0 0 0.0243,1.56999 c 0.52524,0.88923 1.43575,0.57902 2.40849,0.23196 a 3.8043237,3.8043237 0 0 1 1.55589,-0.35609 z"
             fill="#231f20"
             id="path420"
             style="stroke-width:0.897245" />
          <path
             d="m 130.15837,119.33729 c -0.13337,-2.24132 4.15051,-2.59474 4.68205,-0.71852 0.53153,1.87623 -4.4499,2.384 -4.68205,0.71852 z"
             fill="#010101"
             id="path422"
             style="stroke-width:0.897245" />
          <path
             id="path1955"
             style="fill:#00a50d;fill-opacity:1;stroke:none;stroke-width:0.00100194"
             d="m 212.82648,103.10344 c -1.43368,0.92923 -1.06412,2.99175 -0.85125,4.62268 0.105,1.55772 -0.3156,3.24139 -1.70744,3.90038 -1.50515,-0.77978 -1.31933,1.51236 -2.59538,1.39893 0.12061,-0.67675 1.77815,-1.34527 0.48331,-2.43697 -1.31565,-2.13088 -0.55069,-4.63241 1.13559,-5.7588 1.00958,-0.81663 2.2486,-1.3436 3.53517,-1.72622 z" />
          <path
             style="fill:url(#linearGradient1648);fill-opacity:1;stroke:#000000;stroke-width:0.131032px;stroke-linecap:butt;stroke-linejoin:miter;stroke-opacity:1"
             d="m 154.64518,127.4118 c 0.0556,0.2032 20.33713,-4.11058 22.47808,-5.87608 2.42216,-1.9974 14.11398,-8.10575 14.00746,-8.16581 l 2.73158,1.41917 c 0,0 -8.95248,4.38737 -9.31465,4.97912 -0.36218,0.59175 -2.10422,1.94245 -2.10422,1.94245 0,0 13.31129,-5.82499 14.02155,-6.03869 0.71028,-0.21371 10.03527,-2.98785 11.02234,-2.6054 0.98707,0.38245 3.02327,-0.10132 3.02327,-0.10132 l 0.20768,3.70987 c 0,0 -6.48963,0.82435 -7.71434,1.2456 -1.22473,0.42121 -10.9019,3.70652 -11.72991,4.07465 -0.82801,0.36813 -2.8561,2.06119 -3.18795,2.17019 -0.33186,0.109 -7.60056,1.49642 -7.91063,1.6025 -0.31007,0.10608 -13.32049,2.93948 -13.81269,3.06502 -0.4922,0.12554 -10.77215,1.89689 -10.77215,1.89689 l -2.06838,0.99897 c 0,0 -1.20193,-3.91429 -0.56197,-4.23475 0.63992,-0.32046 1.68494,-0.0824 1.68494,-0.0824 z"
             id="path633"
             sodipodi:nodetypes="csccscsscccssssccscc" />
          <rect
             style="fill:#ba3f00;fill-opacity:1;stroke:none;stroke-width:0.370225;stroke-miterlimit:4;stroke-dasharray:none"
             id="rect1658"
             width="0.041357998"
             height="0.18978298"
             x="183.73834"
             y="146.01141"
             transform="rotate(-4.3548386)" />
          <path
             id="path1934"
             style="fill:#00a50d;fill-opacity:1;stroke:none;stroke-width:0.000842937"
             d="m 203.69401,125.23073 c -1.56218,-0.0181 -2.41754,-1.52338 -3.15228,-2.68093 -0.77407,-1.06503 -2.00348,-1.99587 -3.38722,-1.854 -0.6808,1.13232 -1.79676,-0.44777 -2.67323,0.15297 0.45854,0.39415 2.04289,0.14891 1.68722,1.39908 0.19693,1.94034 2.12657,3.26559 3.98227,3.30883 1.18875,0.1192 2.38797,-0.0462 3.54324,-0.32595 z" />
          <path
             id="path1957"
             style="fill:#00a50d;fill-opacity:1;stroke:none;stroke-width:0.00057242"
             d="m 185.24313,110.0508 c 0.37659,0.99183 -0.36229,1.90633 -0.91138,2.65822 -0.48084,0.75377 -0.76377,1.762 -0.33039,2.60131 0.88475,0.14902 0.1633,1.24681 0.7607,1.65153 0.1352,-0.38771 -0.41333,-1.32813 0.46513,-1.41388 1.17742,-0.60643 1.53569,-2.15518 1.10208,-3.33876 -0.21995,-0.78092 -0.62238,-1.49774 -1.08614,-2.15842 z" />
          <path
             id="path1959"
             style="fill:#00a50d;fill-opacity:1;stroke:none;stroke-width:0.000698678"
             d="m 203.11089,108.51716 c -1.15013,0.64719 -0.81124,1.85187 -0.60787,2.80965 0.1142,0.9212 -0.19721,1.95175 -1.31826,2.43521 -1.23981,-0.36632 -1.04628,0.98715 -2.08729,1.00287 0.0857,-0.41107 1.42292,-0.91755 0.34858,-1.48344 -1.11042,-1.18365 -0.53372,-2.72395 0.81844,-3.50509 0.80692,-0.55243 1.80598,-0.94727 2.8464,-1.2592 z" />
          <path
             id="path1961"
             style="fill:#00a50d;fill-opacity:1;stroke:none;stroke-width:0.000407037"
             d="m 214.54277,118.94041 c -0.73555,-0.0119 -1.1411,-0.75897 -1.4892,-1.33362 -0.36644,-0.5289 -0.94702,-0.99219 -1.59827,-0.92451 -0.31841,0.55949 -0.84679,-0.22512 -1.25834,0.0708 0.21663,0.19606 0.96213,0.0776 0.79701,0.69604 0.0963,0.96131 1.00736,1.62125 1.88115,1.64613 0.55992,0.0613 1.12423,-0.0185 1.66765,-0.1548 z" />
          <path
             style="fill:url(#linearGradient1666);fill-opacity:1;stroke:#000000;stroke-width:0.142505px;stroke-linecap:butt;stroke-linejoin:miter;stroke-opacity:1"
             d="m 108.96188,132.0223 c 0.16323,-0.15252 -15.8806,-7.09753 -19.012751,-7.66936 -2.581206,-0.47125 -11.74886,-0.92059 -11.985542,0.0659 l -3.436712,-2.53902 c 0,0 3.268383,0.31007 3.916932,-0.10251 0.648542,-0.41257 1.437078,-1.1937 1.437078,-1.1937 0,0 -9.920569,-0.50295 -10.603477,-0.6939 1.309503,-1.32428 -8.403561,-3.42819 -10.15543,-3.71409 -1.026246,-0.16748 -2.403977,-1.66654 -2.403977,-1.66654 l -0.383103,-2.96341 c 0,0 7.54384,2.41708 8.754176,2.69062 1.210351,0.27353 11.27122,1.92261 12.141363,2.01951 0.870138,0.0969 3.286775,0.59643 3.611542,0.67596 0.324682,0.0799 9.186852,3.6847 9.492971,3.75439 0.306075,0.0699 9.68235,3.48008 10.14155,3.63623 0.45921,0.15614 9.81747,3.64049 9.81747,3.64049 l 2.18175,1.61273 c 0,0 -1.46306,3.38504 -2.15792,3.34811 -0.69485,-0.0369 -1.35593,-0.90142 -1.35593,-0.90142 z"
             id="path635"
             sodipodi:nodetypes="csccsccsccsscssccscc" />
          <path
             id="path1963"
             style="fill:#00a50d;fill-opacity:1;stroke:none;stroke-width:0.000696723"
             d="m 58.112594,105.81566 c 0.923816,0.74361 0.430303,2.07386 0.09689,3.13291 -0.248022,1.02038 -0.133539,2.17142 0.790299,2.73258 1.164617,-0.37982 1.040436,1.49964 1.601066,1.05029 -0.01131,-0.45829 -1.021661,-0.94112 0.02693,-1.54613 1.17878,-1.29014 0.908364,-3.01294 -0.174519,-3.90966 -0.632546,-0.63092 -1.461568,-1.09103 -2.340661,-1.45999 z"
             sodipodi:nodetypes="ccccccc" />
          <path
             id="path1965"
             style="fill:#00a50d;fill-opacity:1;stroke:none;stroke-width:0.000988473"
             d="m 68.627564,105.44535 c -0.298608,1.61332 1.483253,2.74397 2.837622,3.69277 1.225901,0.97404 2.183324,2.39529 1.713395,3.79821 -1.613445,0.51453 0.285594,2.58073 -0.741386,2.52103 -0.418188,-0.53785 0.218664,-1.92119 -1.481051,-1.7613 -2.483634,-0.52387 -3.809747,-2.73213 -3.48332,-4.65217 0.09008,-1.2451 0.552598,-2.45391 1.15474,-3.59854 z"
             sodipodi:nodetypes="ccccccc" />
          <path
             id="path1967"
             style="fill:#00a50d;fill-opacity:1;stroke:none;stroke-width:0.000871424"
             d="m 59.994781,124.81921 c 1.484279,-0.37018 1.665011,-2.09728 1.877493,-3.44273 0.28914,-1.26 1.069883,-2.48572 2.451359,-2.65264 1.128726,1.00103 2.044851,-1.15474 2.438,-0.3759 -0.271344,0.50503 -1.708421,0.54174 -0.840392,1.73611 0.631964,2.02237 -0.650817,3.8078 -2.404798,4.2697 -1.084926,0.38915 -2.300113,0.49051 -3.521658,0.46548 z"
             sodipodi:nodetypes="ccccccc"
             inkscape:transform-center-x="2.6670322"
             inkscape:transform-center-y="-6.6589842" />
          <path
             id="path1969"
             style="fill:#00a50d;fill-opacity:1;stroke:none;stroke-width:0.00098652"
             d="m 80.074587,132.76642 c 0.08627,-1.53077 2.222833,-2.35304 3.868846,-3.0608 1.518285,-0.74727 2.866846,-1.94223 2.722621,-3.29983 -1.555507,-0.6792 0.933823,-2.35264 -0.151706,-2.4266 -0.568594,0.44519 -0.245494,1.80566 -1.978348,1.44381 -2.718754,0.17238 -4.645707,2.04937 -4.778558,3.86753 -0.212933,1.16373 -0.0286,2.34073 0.317145,3.47589 z"
             sodipodi:nodetypes="ccccccc"
             inkscape:transform-center-x="-4.063071"
             inkscape:transform-center-y="0.58621812" />
          <path
             id="path1971"
             style="fill:#00a50d;fill-opacity:1;stroke:none;stroke-width:0.00112222"
             d="m 88.278396,111.19436 c -0.403088,1.66263 2.276992,2.20456 3.922338,3.31079 1.486728,1.12186 1.587521,2.82509 0.978295,4.25324 -1.996486,0.4028 0.294264,2.72368 -0.96796,2.57501 -0.502612,-0.59775 0.311552,-1.9914 -1.783226,-1.96682 -3.044143,-0.75652 -4.626849,-3.17791 -4.182732,-5.15907 0.13839,-1.29494 1.267105,-1.8663 2.033285,-3.01315 z"
             sodipodi:nodetypes="ccccccc"
             inkscape:transform-center-x="1.2543151"
             inkscape:transform-center-y="-1.9046942" />
          <path
             style="fill:#000000;fill-opacity:0.99;stroke:#000000;stroke-width:0.635265;stroke-linecap:round;stroke-linejoin:round;stroke-miterlimit:4;stroke-dasharray:none;stroke-opacity:1"
             d="m 223.60427,147.78629 -37.39903,-0.14321 c 0,0 18.98898,14.00126 37.39903,0.14321 z"
             id="path2043" />
          <path
             style="fill:none;stroke:#000000;stroke-width:0.687917;stroke-linecap:round;stroke-linejoin:round;stroke-miterlimit:4;stroke-dasharray:none;stroke-opacity:1;paint-order:markers stroke fill"
             d="m 186.20524,147.64308 20.33549,-34.55671"
             id="path2206" />
          <path
             style="fill:#000000;fill-opacity:0.99;stroke:#000000;stroke-width:0.635265;stroke-linecap:round;stroke-linejoin:round;stroke-miterlimit:4;stroke-dasharray:none;stroke-opacity:1"
             d="m 78.351695,147.80989 -37.399027,-0.14321 c 0,0 18.988977,14.00126 37.399027,0.14321 z"
             id="path2236" />
          <path
             style="fill:none;stroke:#000000;stroke-width:0.687917;stroke-linecap:butt;stroke-linejoin:round;stroke-miterlimit:4;stroke-dasharray:none;stroke-opacity:1"
             d="m 40.952668,147.66668 20.33549,-34.55672"
             id="path2238" />
          <path
             style="fill:#ffffff;fill-opacity:1;stroke:none;stroke-width:0.264174px;stroke-linecap:butt;stroke-linejoin:miter;stroke-opacity:1"
             d="m 54.731487,151.3885 c 0.01939,-3e-4 0.436081,-0.0497 0.569302,-0.0946 0.133218,-0.0449 0.480582,-0.18621 0.534714,-0.21716 0.05413,-0.031 2.048679,-1.48576 2.048679,-1.48576 l 1.864623,-1.26866 0.415274,-0.51277 0.117864,-0.15412 c 0,0 0.318518,-0.0584 0.349963,-0.0423 0.03145,0.0162 0.205702,0.12716 0.226734,0.15579 0.02102,0.0286 0.173263,0.1764 0.173263,0.1764 l 1.116261,1.46516 0.909966,0.21791 1.401069,-0.0556 2.030789,-0.26529 c 0,0 0.563421,0.0283 0.615289,0.0358 0.05186,0.007 0.990536,0.0685 1.650287,-0.49444 0.659753,-0.56289 0.845479,-0.79095 0.845479,-0.79095 l 0.251234,-0.41282 0.367547,-0.92216 1.382491,-3.0324 0.184797,-0.69044 c 0,0 -0.07436,-0.70573 -0.154071,-0.89438 -0.07971,-0.18867 -0.273069,-0.47704 -0.273069,-0.47704 l -1.216885,-1.66182 -1.13145,-1.76179 -0.343236,-0.36989 -0.398592,-0.2488 c 0,0 -0.894659,-0.32576 -1.312513,-0.37831 -0.417857,-0.0526 -0.586883,-0.0272 -0.586883,-0.0272 l -2.888723,0.3348 -1.530061,0.13766 c 0,0 -0.832301,0.31877 -1.01876,0.56353 -0.186456,0.24475 -0.54632,0.75087 -0.54632,0.75087 l -0.161956,0.5049 -0.196595,0.55646 c 0,0 -0.510708,0.31187 -0.519639,0.30788 -0.0089,-0.004 -0.46296,-0.12388 -0.46296,-0.12388 l -0.25474,-0.0796 -0.684447,-0.32053 -1.585302,-0.69859 -1.17518,-0.64412 -0.856634,-0.28279 -1.219731,0.10275 -0.884673,0.34236 -1.07888,0.83734 -1.835692,1.29936 -0.75613,0.53477 -0.384997,0.52076 -0.245786,0.45921 -0.05698,0.98839 0.08672,1.2393 0.20821,2.12527 0.191756,1.37698 0.179484,0.42572 c 0,0 0.234735,0.21081 0.255067,0.22412 0.02033,0.0134 0.205926,0.22154 0.205926,0.22154 l 0.263198,0.25363 1.926766,0.82616 2.114656,0.96169 0.990797,0.45001 z"
             id="path2317" />
          <path
             id="path2306"
             style="fill:#000000;fill-opacity:1;stroke:#000000;stroke-width:0.222;stroke-miterlimit:4;stroke-dasharray:none;stroke-opacity:1"
             d="m 48.509896,148.31891 c -0.261498,-1.99163 -0.524154,-4.00962 -0.513207,-6.01306 0.443373,-1.30197 1.909865,-1.68926 2.844091,-2.54685 1.051381,-0.6563 2.059131,-1.92031 3.412289,-1.71265 1.249922,0.27858 2.255852,1.16493 3.490431,1.48976 0.796051,0.68833 2.501057,1.27838 2.512255,-0.34648 0.372815,-1.27425 1.770559,-1.79013 2.987694,-1.74841 1.576729,0.0492 3.153101,-0.56697 4.718765,-0.18796 1.216307,0.64564 1.61347,2.07612 2.496064,3.04864 0.665494,0.90649 1.721186,1.9338 1.25595,3.16264 -0.564209,1.50745 -1.385304,2.90567 -1.925736,4.42253 -0.566997,1.25535 -1.984251,1.6488 -3.244349,1.47665 -1.438575,0.0754 -2.928134,0.59042 -4.341899,0.12107 -0.73482,-0.39893 -1.309406,-2.71831 -2.199287,-1.36609 -0.862538,0.85411 -2.029893,1.31574 -2.927418,2.13719 -0.873809,0.66961 -1.951728,1.53727 -3.098832,0.98282 -1.181697,-0.45979 -2.258547,-1.15274 -3.461658,-1.56706 -0.748896,-0.30169 -1.557574,-0.638 -2.005153,-1.35274 z m 0.253949,0.0675 c 1.676483,-0.59008 2.823637,-2.05903 4.39859,-2.83686 1.120035,-0.75863 0.986154,-2.18662 0.742948,-3.33495 -0.116131,-1.13292 -0.158264,-2.27295 -0.310025,-3.40228 -1.049188,-1.04962 -2.033837,0.913 -3.028443,1.24063 -0.878362,0.74569 -2.336471,1.24693 -2.495766,2.52854 -0.111442,1.2254 0.3118,2.42212 0.293932,3.6478 0.04071,0.72844 0.02247,1.50399 0.398764,2.15712 z m 0.209043,-1.31665 c -0.797797,-1.09509 1.914073,-1.59592 1.121927,-0.27326 -0.09269,0.4516 -1.011894,1.01822 -1.121927,0.27326 z m 2.970557,-6.32085 c -0.892486,-1.2083 2.035758,-1.77168 1.01571,-0.25522 -0.177483,0.33454 -0.764363,0.78673 -1.01571,0.25522 z m -2.529156,8.29361 c 1.735081,0.77888 3.435162,1.6402 5.214525,2.31693 1.398209,-0.0226 2.239579,-1.30981 3.384318,-1.90813 0.561809,-0.62076 2.631735,-1.1817 1.615422,-2.21264 -1.136267,-0.77989 -2.579299,-0.94293 -3.688554,-1.77964 -1.114433,-0.73088 -2.44178,-0.32015 -3.306613,0.56102 -1.131796,0.7907 -2.258396,1.58943 -3.35902,2.42321 -0.177294,0.17826 -0.09273,0.51473 0.139922,0.59925 z m 0.809503,-0.37345 c 0.02977,-1.65853 2.925633,0.12305 0.933756,0.41127 -0.350007,0.0321 -0.756399,-0.0817 -0.933756,-0.41127 z m 3.53973,-0.31705 c -0.159633,-1.52087 2.70461,-0.1643 1.155043,0.3431 -0.398933,0.11122 -0.926523,0.0448 -1.155043,-0.3431 z m 3.530045,-0.34855 c -0.0016,-1.69925 2.913703,0.20041 0.87343,0.39421 -0.327471,0.0236 -0.720211,-0.0704 -0.87343,-0.39421 z m -2.581192,-3.26741 c 1.580151,0.90519 3.301008,1.52206 4.92702,2.33471 1.209693,-0.0821 0.721353,-1.5309 0.580907,-2.29928 -0.188246,-1.23148 0.0327,-2.55655 -0.479504,-3.72857 -0.665675,-1.14648 -2.142681,-1.29838 -3.224513,-1.87804 -0.799879,-0.31851 -2.479748,-1.75379 -2.775664,-0.24784 0.248979,1.79725 0.219891,3.64792 0.662171,5.40884 0.07707,0.15389 0.179932,0.29616 0.309583,0.41018 z m 1.76858,-2.05584 c -0.273609,-1.78372 2.57085,0.48922 0.825603,0.75369 -0.392455,-0.0659 -0.671599,-0.40946 -0.825603,-0.75369 z m 5.640898,6.59534 c 1.166485,0.71561 2.515871,0.0238 3.765277,0.0819 0.858798,-0.31766 2.691777,0.39504 2.714101,-0.9948 -0.642207,-1.3418 -1.858584,-2.30435 -2.485252,-3.65753 -0.67455,-1.26511 -2.18637,-1.24236 -3.396135,-0.99659 -0.671259,0.16493 -2.056281,-0.098 -2.242824,0.56482 0.410692,0.51277 1.509051,1.26069 0.260038,1.57524 -0.803496,0.993 0.387141,2.15471 0.990467,2.91944 0.131153,0.1694 0.260637,0.3401 0.394328,0.50751 z m -0.06448,-1.01745 c 0.535597,-1.606 2.662159,1.2055 0.724977,0.72031 -0.327982,-0.12187 -0.620705,-0.37869 -0.724977,-0.72031 z m 0.847706,-1.85856 c 0.428823,-1.57355 2.602034,1.08195 0.789628,0.73241 -0.357299,-0.0998 -0.686138,-0.3664 -0.789628,-0.73241 z m 0.865498,-1.75492 c 0.356724,-1.7288 2.766361,1.03929 0.748806,0.63546 -0.314205,-0.11442 -0.584698,-0.34416 -0.748806,-0.63546 z m 2.380556,3.33111 c 0.348782,-1.72776 2.769858,1.02878 0.754904,0.63561 -0.316533,-0.11272 -0.591706,-0.34125 -0.754904,-0.63561 z m -3.836283,-4.36151 c 1.168803,-0.0884 2.803548,-0.0354 3.248014,-1.40014 0.651896,-1.40128 1.26216,-2.82245 1.961361,-4.20134 -0.176123,-1.53973 -2.143957,-0.42431 -3.128898,-0.55978 -1.144983,0.26142 -2.657881,-0.13165 -3.466803,0.89471 -0.826341,0.89963 -1.184282,2.19932 -0.879316,3.38735 -0.145213,1.00187 0.318728,2.56882 1.622077,1.94136 0.212692,-0.0356 0.427765,-0.0593 0.643565,-0.0622 z m -0.0821,-2.68394 c -0.425342,-1.38378 2.561676,-0.96929 1.137782,0.0726 -0.315143,0.24393 -0.975716,0.46848 -1.137782,-0.0726 z m 6.596707,7.41928 c 1.284414,-0.22877 1.219978,-1.78098 1.736636,-2.69775 0.5289,-1.05517 1.432861,-2.19107 1.052039,-3.43489 -0.709099,-1.36098 -1.81602,-2.46436 -2.577079,-3.79705 -0.442769,-1.1338 -1.549469,-0.73904 -1.805516,0.2493 -0.337252,0.89368 -0.555527,1.84164 -1.126002,2.62832 -0.545599,0.92202 -0.971919,2.22912 -0.124095,3.10781 0.973279,1.29647 1.863277,2.65326 2.844017,3.94426 z m -0.293288,-1.32304 c -1.084069,-0.87878 1.39885,-1.8378 0.997319,-0.40806 0.125668,0.5558 -0.82652,1.17591 -0.997319,0.40806 z m -2.413917,-3.43816 c -0.93924,-1.12115 1.594539,-1.68187 1.03876,-0.19942 -0.04586,0.57722 -0.946834,1.03309 -1.03876,0.19942 z m 1.706295,-3.69354 c -0.995164,-1.08142 1.591925,-1.67151 1.02582,-0.23287 0.02117,0.56627 -0.951637,0.99354 -1.02582,0.23287 z m 2.361128,3.3024 c -0.988711,-0.98581 1.51996,-1.65147 1.037717,-0.2834 0.1376,0.6225 -0.992741,1.0946 -1.037717,0.2834 z" />
          <g
             aria-label="rand"
             id="text2821"
             style="font-style:normal;font-weight:normal;font-size:10.5833px;line-height:1.25;font-family:sans-serif;fill:#000000;fill-opacity:1;stroke:#ffffff;stroke-width:1.2;stroke-miterlimit:4;stroke-dasharray:none;stroke-opacity:1"
             transform="translate(0.20928955,0.46302083)">
            <path
               d="m 197.4405,140.96889 q 0.2388,0 0.43961,0.038 0.20082,0.038 0.42334,0.10855 l -0.20624,2.11123 h -0.86838 v -1.16687 q -0.60243,0.0217 -1.04204,0.48303 -0.43962,0.4559 -0.70013,1.30799 v 2.12751 h 1.15602 v 0.86837 h -3.21298 v -0.86837 h 0.84124 v -3.99994 h -0.84124 v -0.86295 h 1.76931 l 0.22252,1.3297 q 0.33107,-0.74355 0.80868,-1.10718 0.48303,-0.36906 1.21029,-0.36906 z"
               style="font-style:normal;font-variant:normal;font-weight:500;font-stretch:normal;font-size:10.5833px;font-family:'Fira Code';-inkscape-font-specification:'Fira Code, Medium';font-variant-ligatures:normal;font-variant-caps:normal;font-variant-numeric:normal;font-variant-east-asian:normal;stroke:#ffffff;stroke-width:1.2;stroke-miterlimit:4;stroke-dasharray:none;stroke-opacity:1"
               id="path2835" />
            <path
               d="m 204.26807,145.44102 q 0,0.33106 0.0977,0.48846 0.10312,0.15739 0.3365,0.23337 l -0.27137,0.82496 q -0.43961,-0.0488 -0.73812,-0.23881 -0.2985,-0.18995 -0.45047,-0.55359 -0.30935,0.39077 -0.78696,0.59701 -0.4776,0.20081 -1.04205,0.20081 -0.57529,0 -1.00405,-0.22252 -0.42334,-0.22252 -0.65128,-0.62414 -0.22795,-0.40162 -0.22795,-0.9335 0,-0.90637 0.70555,-1.39483 0.71098,-0.48846 2.01897,-0.48846 h 0.81953 v -0.37448 q 0,-0.54274 -0.32564,-0.79239 -0.32564,-0.24966 -0.94979,-0.24966 -0.2985,0 -0.70012,0.076 -0.40162,0.076 -0.82496,0.22252 l -0.2985,-0.85752 q 0.52102,-0.19538 1.03662,-0.29307 0.5156,-0.0977 0.97149,-0.0977 1.13432,0 1.70961,0.49931 0.5753,0.49932 0.5753,1.42196 z m -2.48572,0.6567 q 0.37449,0 0.72184,-0.19538 0.35277,-0.20081 0.56987,-0.54816 v -1.26457 h -0.67299 q -0.83038,0 -1.21572,0.27679 -0.37992,0.27137 -0.37992,0.79239 0,0.46133 0.24423,0.70013 0.24966,0.2388 0.73269,0.2388 z"
               style="font-style:normal;font-variant:normal;font-weight:500;font-stretch:normal;font-size:10.5833px;font-family:'Fira Code';-inkscape-font-specification:'Fira Code, Medium';font-variant-ligatures:normal;font-variant-caps:normal;font-variant-numeric:normal;font-variant-east-asian:normal;stroke:#ffffff;stroke-width:1.2;stroke-miterlimit:4;stroke-dasharray:none;stroke-opacity:1"
               id="path2837" />
            <path
               d="m 206.401,146.84669 v -5.73126 h 1.04747 l 0.0923,0.74355 q 0.35277,-0.42876 0.84123,-0.66214 0.48846,-0.23337 1.00949,-0.23337 0.79239,0 1.19401,0.44504 0.40705,0.43961 0.40705,1.25914 v 4.17904 h -1.21572 v -3.57661 q 0,-0.53188 -0.0651,-0.81952 -0.0597,-0.28765 -0.2388,-0.42334 -0.17368,-0.13568 -0.5156,-0.13568 -0.39077,0 -0.73812,0.2388 -0.34192,0.23881 -0.60243,0.60244 v 4.11391 z"
               style="font-style:normal;font-variant:normal;font-weight:500;font-stretch:normal;font-size:10.5833px;font-family:'Fira Code';-inkscape-font-specification:'Fira Code, Medium';font-variant-ligatures:normal;font-variant-caps:normal;font-variant-numeric:normal;font-variant-east-asian:normal;stroke:#ffffff;stroke-width:1.2;stroke-miterlimit:4;stroke-dasharray:none;stroke-opacity:1"
               id="path2839" />
            <path
               d="m 216.27873,138.67856 1.21572,0.13568 v 8.03245 h -1.06918 l -0.0868,-0.70555 q -0.29308,0.41248 -0.70556,0.635 -0.40705,0.21709 -0.90636,0.21709 -1.06918,0 -1.61192,-0.80324 -0.54273,-0.80868 -0.54273,-2.20893 0,-0.8738 0.27137,-1.55764 0.27136,-0.68385 0.78153,-1.06919 0.5156,-0.39076 1.2103,-0.39076 0.87922,0 1.44367,0.62414 z m -1.12346,3.21841 q -0.62957,0 -0.96607,0.51559 -0.33106,0.5156 -0.33106,1.5685 0,2.07867 1.18858,2.07867 0.71098,0 1.23201,-0.8141 v -2.71366 q -0.2171,-0.30936 -0.49932,-0.47218 -0.28222,-0.16282 -0.62414,-0.16282 z"
               style="font-style:normal;font-variant:normal;font-weight:500;font-stretch:normal;font-size:10.5833px;font-family:'Fira Code';-inkscape-font-specification:'Fira Code, Medium';font-variant-ligatures:normal;font-variant-caps:normal;font-variant-numeric:normal;font-variant-east-asian:normal;stroke:#ffffff;stroke-width:1.2;stroke-miterlimit:4;stroke-dasharray:none;stroke-opacity:1"
               id="path2841" />
          </g>
          <g
             id="g2861"
             style="stroke:none;stroke-opacity:1"
             transform="translate(0.20928955,0.46302083)">
            <g
               aria-label="rand"
               id="g2859"
               style="font-style:normal;font-weight:normal;font-size:10.5833px;line-height:1.25;font-family:sans-serif;fill:#000000;fill-opacity:1;stroke:none;stroke-width:0.264583;stroke-opacity:1">
              <path
                 d="m 197.4405,140.96889 q 0.2388,0 0.43961,0.038 0.20082,0.038 0.42334,0.10855 l -0.20624,2.11123 h -0.86838 v -1.16687 q -0.60243,0.0217 -1.04204,0.48303 -0.43962,0.4559 -0.70013,1.30799 v 2.12751 h 1.15602 v 0.86837 h -3.21298 v -0.86837 h 0.84124 v -3.99994 h -0.84124 v -0.86295 h 1.76931 l 0.22252,1.3297 q 0.33107,-0.74355 0.80868,-1.10718 0.48303,-0.36906 1.21029,-0.36906 z"
                 style="font-style:normal;font-variant:normal;font-weight:500;font-stretch:normal;font-size:10.5833px;font-family:'Fira Code';-inkscape-font-specification:'Fira Code, Medium';font-variant-ligatures:normal;font-variant-caps:normal;font-variant-numeric:normal;font-variant-east-asian:normal;stroke:none;stroke-width:0.264583;stroke-opacity:1"
                 id="path2851" />
              <path
                 d="m 204.26807,145.44102 q 0,0.33106 0.0977,0.48846 0.10312,0.15739 0.3365,0.23337 l -0.27137,0.82496 q -0.43961,-0.0488 -0.73812,-0.23881 -0.2985,-0.18995 -0.45047,-0.55359 -0.30935,0.39077 -0.78696,0.59701 -0.4776,0.20081 -1.04205,0.20081 -0.57529,0 -1.00405,-0.22252 -0.42334,-0.22252 -0.65128,-0.62414 -0.22795,-0.40162 -0.22795,-0.9335 0,-0.90637 0.70555,-1.39483 0.71098,-0.48846 2.01897,-0.48846 h 0.81953 v -0.37448 q 0,-0.54274 -0.32564,-0.79239 -0.32564,-0.24966 -0.94979,-0.24966 -0.2985,0 -0.70012,0.076 -0.40162,0.076 -0.82496,0.22252 l -0.2985,-0.85752 q 0.52102,-0.19538 1.03662,-0.29307 0.5156,-0.0977 0.97149,-0.0977 1.13432,0 1.70961,0.49931 0.5753,0.49932 0.5753,1.42196 z m -2.48572,0.6567 q 0.37449,0 0.72184,-0.19538 0.35277,-0.20081 0.56987,-0.54816 v -1.26457 h -0.67299 q -0.83038,0 -1.21572,0.27679 -0.37992,0.27137 -0.37992,0.79239 0,0.46133 0.24423,0.70013 0.24966,0.2388 0.73269,0.2388 z"
                 style="font-style:normal;font-variant:normal;font-weight:500;font-stretch:normal;font-size:10.5833px;font-family:'Fira Code';-inkscape-font-specification:'Fira Code, Medium';font-variant-ligatures:normal;font-variant-caps:normal;font-variant-numeric:normal;font-variant-east-asian:normal;stroke:none;stroke-width:0.264583;stroke-opacity:1"
                 id="path2853" />
              <path
                 d="m 206.401,146.84669 v -5.73126 h 1.04747 l 0.0923,0.74355 q 0.35277,-0.42876 0.84123,-0.66214 0.48846,-0.23337 1.00949,-0.23337 0.79239,0 1.19401,0.44504 0.40705,0.43961 0.40705,1.25914 v 4.17904 h -1.21572 v -3.57661 q 0,-0.53188 -0.0651,-0.81952 -0.0597,-0.28765 -0.2388,-0.42334 -0.17368,-0.13568 -0.5156,-0.13568 -0.39077,0 -0.73812,0.2388 -0.34192,0.23881 -0.60243,0.60244 v 4.11391 z"
                 style="font-style:normal;font-variant:normal;font-weight:500;font-stretch:normal;font-size:10.5833px;font-family:'Fira Code';-inkscape-font-specification:'Fira Code, Medium';font-variant-ligatures:normal;font-variant-caps:normal;font-variant-numeric:normal;font-variant-east-asian:normal;stroke:none;stroke-width:0.264583;stroke-opacity:1"
                 id="path2855" />
              <path
                 d="m 216.27873,138.67856 1.21572,0.13568 v 8.03245 h -1.06918 l -0.0868,-0.70555 q -0.29308,0.41248 -0.70556,0.635 -0.40705,0.21709 -0.90636,0.21709 -1.06918,0 -1.61192,-0.80324 -0.54273,-0.80868 -0.54273,-2.20893 0,-0.8738 0.27137,-1.55764 0.27136,-0.68385 0.78153,-1.06919 0.5156,-0.39076 1.2103,-0.39076 0.87922,0 1.44367,0.62414 z m -1.12346,3.21841 q -0.62957,0 -0.96607,0.51559 -0.33106,0.5156 -0.33106,1.5685 0,2.07867 1.18858,2.07867 0.71098,0 1.23201,-0.8141 v -2.71366 q -0.2171,-0.30936 -0.49932,-0.47218 -0.28222,-0.16282 -0.62414,-0.16282 z"
                 style="font-style:normal;font-variant:normal;font-weight:500;font-stretch:normal;font-size:10.5833px;font-family:'Fira Code';-inkscape-font-specification:'Fira Code, Medium';font-variant-ligatures:normal;font-variant-caps:normal;font-variant-numeric:normal;font-variant-east-asian:normal;stroke:none;stroke-width:0.264583;stroke-opacity:1"
                 id="path2857" />
            </g>
          </g>
        </g>
      </g>
    </g>
  </g>
</svg>
